<svg width="20" height="12" viewBox="0 0 20 12" fill="none" xmlns="http://www.w3.org/2000/svg">
<path d="M16.5958 6.85651C16.2725 6.44817 16.365 6.26651 16.5958 5.9015C16.6 5.89734 19.2692 2.209 19.5442 0.958169L19.5458 0.957337C19.6825 0.501503 19.5458 0.166504 18.885 0.166504H16.6983C16.1417 0.166504 15.885 0.454004 15.7475 0.77567C15.7475 0.77567 14.6342 3.44067 13.0592 5.16817C12.5508 5.66734 12.3158 5.82734 12.0383 5.82734C11.9017 5.82734 11.6892 5.66734 11.6892 5.2115V0.957337C11.6892 0.410669 11.5333 0.166504 11.0725 0.166504H7.63417C7.285 0.166504 7.0775 0.421503 7.0775 0.659003C7.0775 1.17734 7.865 1.2965 7.94667 2.75484V5.91901C7.94667 6.61234 7.82084 6.73984 7.54167 6.73984C6.79833 6.73984 4.99417 4.064 3.925 1.0015C3.70917 0.407336 3.49833 0.167337 2.9375 0.167337H0.75C0.125834 0.167337 0 0.454837 0 0.776503C0 1.34484 0.743334 4.17067 3.45667 7.90401C5.265 10.4523 7.81167 11.8332 10.1283 11.8332C11.5208 11.8332 11.6908 11.5265 11.6908 10.999C11.6908 8.564 11.565 8.33401 12.2625 8.33401C12.5858 8.33401 13.1425 8.49401 14.4425 9.72317C15.9283 11.1807 16.1725 11.8332 17.0042 11.8332H19.1908C19.8142 11.8332 20.13 11.5265 19.9483 10.9215C19.5325 9.649 16.7225 7.03151 16.5958 6.85651Z" fill="#4C75A3"/>
</svg>
