<svg width="20" height="20" viewBox="0 0 20 20" fill="none" xmlns="http://www.w3.org/2000/svg">
<path d="M17.1939 2.80609C15.3844 0.996523 12.9785 0 10.4194 0C7.86035 0 5.45441 0.996523 3.64484 2.80609C1.83527 4.61566 0.838789 7.02152 0.838789 9.58059C0.838789 11.2016 1.24914 12.7946 2.02805 14.2057L0 20L5.79426 17.972C7.20535 18.7508 8.79832 19.1612 10.4194 19.1612C12.9784 19.1612 15.3844 18.1646 17.1939 16.3551C19.0034 14.5456 20 12.1397 20 9.58059C20 7.02148 19.0034 4.61562 17.1939 2.80609ZM15.1557 13.1396L14.0496 14.2457C13.1334 15.162 10.5336 14.0478 8.24289 11.7571C5.95219 9.46641 4.83801 6.86668 5.7543 5.95039L6.86031 4.84438C7.08937 4.61531 7.46078 4.61531 7.68984 4.84438L9.07238 6.22691C9.30145 6.45598 9.30145 6.82738 9.07238 7.05645L8.24285 7.88598C9.0475 9.58469 10.4153 10.9525 12.114 11.7571L12.9436 10.9276C13.1726 10.6985 13.544 10.6985 13.7731 10.9276L15.1556 12.3101C15.3847 12.5392 15.3847 12.9106 15.1557 13.1396Z" fill="#43D854"/>
</svg>
