<svg width="28" height="30" viewBox="0 0 28 30" fill="none" xmlns="http://www.w3.org/2000/svg">
<path d="M26.6932 8.16838H20.2223V6.33501C20.2223 2.86161 17.4062 0.0455322 13.9328 0.0455322C10.4592 0.0455322 7.64311 2.86161 7.64311 6.33501V8.16838H0.802848C0.403275 8.16951 0.0792595 8.49307 0.078125 8.8931V26.2975C0.0790326 28.2983 1.7007 29.92 3.70129 29.9206H23.8018C25.8026 29.92 27.4242 28.2983 27.4247 26.2975V8.8931C27.4202 8.49171 27.0941 8.16906 26.6932 8.16838ZM9.08507 6.32775C9.08507 3.65463 11.2524 1.48726 13.9253 1.48726C16.5989 1.48726 18.7658 3.65463 18.7658 6.32775V8.16112H9.08507V6.32775ZM25.9684 26.2975C25.9648 27.4969 24.9937 28.468 23.7947 28.4714H3.69425C2.49485 28.468 1.52371 27.4969 1.52031 26.2975V9.6176H7.63585V12.5666C7.63585 12.9669 7.96055 13.2914 8.36035 13.2914C8.7606 13.2914 9.08507 12.9669 9.08507 12.5666V9.6176H18.7731V12.5666C18.7731 12.9669 19.0975 13.2914 19.4978 13.2914C19.8976 13.2914 20.2223 12.9669 20.2223 12.5666V9.6176H25.9684V26.2975Z" fill="#2C2C2C"/>
</svg>
