<svg width="20" height="20" viewBox="0 0 20 20" fill="none" xmlns="http://www.w3.org/2000/svg">
<g clip-path="url(#clip0_101_11923)">
<path d="M16.9033 8.15936H16.1076C16.1889 7.95178 16.234 7.72619 16.234 7.4901C16.234 6.4749 15.4081 5.64893 14.3929 5.64893C13.9081 5.64893 13.4668 5.83756 13.1377 6.14486C12.8085 5.83752 12.3672 5.64893 11.8825 5.64893C10.8673 5.64893 10.0413 6.4749 10.0413 7.4901C10.0413 7.72615 10.0864 7.95174 10.1678 8.15936H9.37207C9.04848 8.15936 8.78613 8.4217 8.78613 8.74529V11.2558C8.78613 11.5794 9.04848 11.8417 9.37207 11.8417H9.41375V13.7662C9.41375 14.0897 9.6761 14.3521 9.99969 14.3521H16.2758C16.5993 14.3521 16.8617 14.0897 16.8617 13.7662V11.8417H16.9033C17.2269 11.8417 17.4893 11.5793 17.4893 11.2557V8.74525C17.4893 8.4217 17.227 8.15936 16.9033 8.15936ZM12.5518 13.1802H10.5856V11.8417H12.5518V13.1802ZM12.5518 10.6698H9.95805V9.33123H12.5518V10.6698ZM12.5518 8.15936H11.8825C11.5135 8.15936 11.2132 7.85912 11.2132 7.4901C11.2132 7.12107 11.5135 6.82084 11.8825 6.82084C12.2515 6.82084 12.5518 7.12111 12.5518 7.49014V8.15936ZM13.7236 7.4901C13.7236 7.12107 14.0239 6.8208 14.3929 6.8208C14.762 6.8208 15.0622 7.12107 15.0622 7.4901C15.0622 7.85912 14.762 8.15936 14.3929 8.15936H13.7236V7.4901ZM15.6898 13.1802H13.7236V11.8417H15.6898V13.1802ZM16.3174 10.6698H13.7236V9.33123H16.3174V10.6698Z" fill="url(#paint0_linear_101_11923)"/>
<path d="M17.5312 3.13818H2.46875C1.10746 3.13818 0 4.24568 0 5.60693V14.3934C0 15.7547 1.1075 16.8622 2.46875 16.8622H17.5312C18.8925 16.8622 20 15.7547 20 14.3934V5.60693C20 4.24568 18.8925 3.13818 17.5312 3.13818ZM18.8281 14.3934C18.8281 15.1085 18.2463 15.6903 17.5312 15.6903H2.46875C1.75363 15.6903 1.17188 15.1085 1.17188 14.3934V5.60693C1.17188 4.89182 1.75367 4.31006 2.46875 4.31006H17.5312C18.2464 4.31006 18.8281 4.89186 18.8281 5.60693V14.3934Z" fill="url(#paint1_linear_101_11923)"/>
<path d="M4.98047 13.1797H3.09766C2.77406 13.1797 2.51172 13.442 2.51172 13.7656C2.51172 14.0892 2.77406 14.3516 3.09766 14.3516H4.98047C5.30406 14.3516 5.56641 14.0892 5.56641 13.7656C5.56641 13.442 5.30406 13.1797 4.98047 13.1797Z" fill="url(#paint2_linear_101_11923)"/>
<path d="M3.09766 6.8208H4.98047C5.30406 6.8208 5.56641 6.55846 5.56641 6.23486C5.56641 5.91127 5.30406 5.64893 4.98047 5.64893H3.09766C2.77406 5.64893 2.51172 5.91127 2.51172 6.23486C2.51172 6.55846 2.77402 6.8208 3.09766 6.8208Z" fill="url(#paint3_linear_101_11923)"/>
<path d="M6.86328 10.6699H3.09766C2.77406 10.6699 2.51172 10.9323 2.51172 11.2559C2.51172 11.5795 2.77406 11.8418 3.09766 11.8418H6.86328C7.18688 11.8418 7.44922 11.5795 7.44922 11.2559C7.44922 10.9323 7.18688 10.6699 6.86328 10.6699Z" fill="url(#paint4_linear_101_11923)"/>
</g>
<defs>
<linearGradient id="paint0_linear_101_11923" x1="8.78613" y1="10.0618" x2="17.4893" y2="10.0618" gradientUnits="userSpaceOnUse">
<stop stop-color="#21A5B5"/>
<stop offset="1" stop-color="#71B2B4"/>
</linearGradient>
<linearGradient id="paint1_linear_101_11923" x1="-5.18758e-08" y1="10.0968" x2="20" y2="10.0968" gradientUnits="userSpaceOnUse">
<stop stop-color="#21A5B5"/>
<stop offset="1" stop-color="#71B2B4"/>
</linearGradient>
<linearGradient id="paint2_linear_101_11923" x1="2.51172" y1="13.7739" x2="5.56641" y2="13.7739" gradientUnits="userSpaceOnUse">
<stop stop-color="#21A5B5"/>
<stop offset="1" stop-color="#71B2B4"/>
</linearGradient>
<linearGradient id="paint3_linear_101_11923" x1="2.51172" y1="6.24312" x2="5.56641" y2="6.24312" gradientUnits="userSpaceOnUse">
<stop stop-color="#21A5B5"/>
<stop offset="1" stop-color="#71B2B4"/>
</linearGradient>
<linearGradient id="paint4_linear_101_11923" x1="2.51172" y1="11.2641" x2="7.44922" y2="11.2641" gradientUnits="userSpaceOnUse">
<stop stop-color="#21A5B5"/>
<stop offset="1" stop-color="#71B2B4"/>
</linearGradient>
<clipPath id="clip0_101_11923">
<rect width="20" height="20" fill="white"/>
</clipPath>
</defs>
</svg>
