<svg width="24" height="24" viewBox="0 0 24 24" fill="none" xmlns="http://www.w3.org/2000/svg">
<g clip-path="url(#clip0_368_618)">
<path d="M23.3898 13.508C23.2099 13.5344 23.026 13.5484 22.8387 13.5484C21.1146 13.5484 19.6553 12.4205 19.1548 10.8627C19.0692 10.5964 18.8518 10.3913 18.577 10.339C15.7137 9.79387 13.5484 7.28011 13.5484 4.25808C13.5484 2.98884 13.9315 1.80989 14.5869 0.827906C14.7427 0.594422 14.6127 0.283453 14.3373 0.228937C13.5813 0.0792187 12.8 0 12 0C5.37258 4.6875e-05 0 5.37258 0 12C0 18.6274 5.37258 24 12 24C17.973 24 22.9119 19.6523 23.8408 13.9403C23.883 13.6811 23.6496 13.4699 23.3898 13.508Z" fill="#F5B97D"/>
<path d="M6.58051 9.67811C7.4356 9.67811 8.12879 8.98492 8.12879 8.12982C8.12879 7.27473 7.4356 6.58154 6.58051 6.58154C5.72542 6.58154 5.03223 7.27473 5.03223 8.12982C5.03223 8.98492 5.72542 9.67811 6.58051 9.67811Z" fill="#CD916E"/>
<path d="M7.35562 17.033C7.99697 17.033 8.5169 16.5131 8.5169 15.8717C8.5169 15.2304 7.99697 14.7104 7.35562 14.7104C6.71426 14.7104 6.19434 15.2304 6.19434 15.8717C6.19434 16.5131 6.71426 17.033 7.35562 17.033Z" fill="#CD916E"/>
<path d="M18.969 15.8712C18.8269 15.8712 18.6904 15.7929 18.6224 15.6572L18.2353 14.883C18.1397 14.6917 18.2172 14.4592 18.4085 14.3636C18.5994 14.2683 18.8318 14.3454 18.9279 14.5367L19.315 15.3109C19.4106 15.5022 19.3331 15.7347 19.1418 15.8303C19.0862 15.8579 19.0272 15.8712 18.969 15.8712Z" fill="#A06E50"/>
<path d="M14.7108 13.5488C14.5687 13.5488 14.4322 13.4706 14.3642 13.3349C14.2686 13.1436 14.3461 12.9111 14.5374 12.8154L15.3115 12.4283C15.5028 12.3335 15.7349 12.4102 15.831 12.6015C15.9266 12.7928 15.8491 13.0252 15.6578 13.1209L14.8836 13.508C14.828 13.5356 14.7691 13.5488 14.7108 13.5488Z" fill="#B67F5F"/>
<path d="M4.2581 12.7743C4.11597 12.7743 3.97947 12.6961 3.91146 12.5603L3.52436 11.7861C3.42874 11.5948 3.50622 11.3624 3.69752 11.2667C3.88844 11.1718 4.1209 11.2486 4.21694 11.4399L4.60404 12.2141C4.69966 12.4054 4.62218 12.6378 4.43088 12.7335C4.37529 12.7611 4.31632 12.7743 4.2581 12.7743Z" fill="#B67F5F"/>
<path d="M9.29093 19.7429C9.1488 19.7429 9.0123 19.6646 8.94429 19.5289C8.84866 19.3376 8.92614 19.1051 9.11744 19.0094L9.89163 18.6223C10.0829 18.5271 10.315 18.6042 10.4111 18.7955C10.5067 18.9868 10.4292 19.2193 10.2379 19.3149L9.46371 19.702C9.40812 19.7296 9.34915 19.7429 9.29093 19.7429Z" fill="#B67F5F"/>
<path d="M10.0642 4.64563C9.9652 4.64563 9.86615 4.60785 9.79055 4.53224L9.40345 4.14515C9.25223 3.99393 9.25223 3.74896 9.40345 3.59779C9.55467 3.44657 9.79964 3.44657 9.95081 3.59779L10.3379 3.98484C10.4891 4.13605 10.4891 4.38102 10.3379 4.53219C10.2623 4.60785 10.1633 4.64563 10.0642 4.64563Z" fill="#B67F5F"/>
<path d="M9.28983 13.547C9.19079 13.547 9.09174 13.5092 9.01613 13.4336L8.62904 13.0465C8.47782 12.8953 8.47782 12.6503 8.62904 12.4992C8.78026 12.3479 9.02523 12.3479 9.1764 12.4992L9.56349 12.8863C9.71471 13.0375 9.71471 13.2824 9.56349 13.4336C9.48788 13.5092 9.38888 13.547 9.28983 13.547Z" fill="#A06E50"/>
<path d="M13.5482 21.6764C13.3342 21.6764 13.1611 21.5033 13.1611 21.2893V20.9022C13.1611 20.6882 13.3343 20.5151 13.5482 20.5151C13.7622 20.5151 13.9353 20.6883 13.9353 20.9022V21.2893C13.9353 21.5033 13.7622 21.6764 13.5482 21.6764Z" fill="#A06E50"/>
<path d="M11.226 6.96741C11.1269 6.96741 11.0279 6.92963 10.9523 6.85402C10.8011 6.7028 10.8011 6.45783 10.9523 6.30666L11.3394 5.91957C11.4906 5.76835 11.7356 5.76835 11.8867 5.91957C12.038 6.07078 12.038 6.31575 11.8867 6.46692L11.4996 6.85402C11.4241 6.92958 11.325 6.96741 11.226 6.96741Z" fill="#A06E50"/>
<path d="M16.9853 3.13691L16.8743 3.80324C16.783 4.35088 17.0922 4.88657 17.612 5.08152L18.5952 5.45024C19.2447 5.69376 19.9614 5.31745 20.1296 4.64456L20.48 3.24271C20.6985 2.36901 19.8823 1.58995 19.0198 1.84874L17.7971 2.21554C17.373 2.34271 17.0581 2.70009 16.9853 3.13691Z" fill="#F5B97D"/>
<path d="M20.9034 7.35421L20.4359 7.58797C20.0693 7.7713 19.9091 8.20864 20.0706 8.58538L20.4467 9.46297C20.6744 9.9943 21.383 10.0977 21.7531 9.65361L22.3581 8.92752C22.6418 8.58706 22.5824 8.07843 22.2279 7.81255L21.7142 7.42729C21.4796 7.25136 21.1657 7.22305 20.9034 7.35421Z" fill="#F5B97D"/>
<path d="M23.2254 5.80521C23.6529 5.80521 23.9995 5.4586 23.9995 5.03102C23.9995 4.60345 23.6529 4.25684 23.2254 4.25684C22.7978 4.25684 22.4512 4.60345 22.4512 5.03102C22.4512 5.4586 22.7978 5.80521 23.2254 5.80521Z" fill="#F5B97D"/>
<path d="M13.4516 22.5492C6.8242 22.5492 1.45162 17.1767 1.45162 10.5493C1.45162 7.60514 2.51208 4.90866 4.27153 2.8208C1.65947 5.02209 0 8.31759 0 12.0009C0 18.6283 5.37258 24.0009 12 24.0009C15.6856 24.0009 18.9773 22.3455 21.1764 19.7356C19.0908 21.4921 16.3968 22.5492 13.4516 22.5492Z" fill="#E3AA75"/>
<path d="M18.7665 4.55278C18.1171 4.30927 17.731 3.64022 17.845 2.95622L17.9774 2.16211L17.7962 2.21648C17.3721 2.34375 17.0572 2.70112 16.9844 3.13791L16.8733 3.80423C16.7821 4.35188 17.0912 4.88756 17.611 5.08252L18.5942 5.45123C19.1157 5.64675 19.6801 5.44317 19.9696 5.00686L18.7665 4.55278Z" fill="#E3AA75"/>
<path d="M23.6608 5.37092C23.2333 5.37092 22.8866 5.02428 22.8866 4.59673C22.8866 4.49642 22.9059 4.39995 22.9406 4.31201C22.6536 4.42531 22.4512 4.70497 22.4512 5.03225C22.4512 5.45979 22.7978 5.80643 23.2254 5.80643C23.5526 5.80643 23.8323 5.60398 23.9455 5.31697C23.8576 5.35165 23.7611 5.37092 23.6608 5.37092Z" fill="#E3AA75"/>
<path d="M21.2727 8.96482L20.8467 7.97089C20.7667 7.78423 20.76 7.58544 20.8085 7.40234L20.4359 7.58862C20.0693 7.77195 19.9091 8.2093 20.0706 8.58608L20.4467 9.46367C20.6744 9.99499 21.383 10.0984 21.753 9.65435L21.9034 9.47389C21.6374 9.41951 21.3941 9.24818 21.2727 8.96482Z" fill="#E3AA75"/>
<path d="M7.40321 8.85467C6.54807 8.85467 5.85483 8.16143 5.85483 7.30629C5.85483 7.09212 5.89838 6.88817 5.97699 6.70264C5.42176 6.93795 5.03223 7.48784 5.03223 8.12885C5.03223 8.984 5.72546 9.67723 6.5806 9.67723C7.22157 9.67723 7.7715 9.2877 8.00677 8.73246C7.82128 8.81107 7.61733 8.85467 7.40321 8.85467Z" fill="#B67F5F"/>
<path d="M7.95849 16.4275C7.31715 16.4275 6.79721 15.9076 6.79721 15.2662C6.79721 15.1024 6.8319 14.947 6.89312 14.8057C6.48113 14.9841 6.19238 15.3935 6.19238 15.871C6.19238 16.5124 6.71232 17.0323 7.35366 17.0323C7.83123 17.0323 8.24063 16.7436 8.41904 16.3316C8.27771 16.3928 8.12227 16.4275 7.95849 16.4275Z" fill="#B67F5F"/>
<path d="M14.7094 18.5814C15.5645 18.5814 16.2577 17.8882 16.2577 17.0331C16.2577 16.1781 15.5645 15.4849 14.7094 15.4849C13.8543 15.4849 13.1611 16.1781 13.1611 17.0331C13.1611 17.8882 13.8543 18.5814 14.7094 18.5814Z" fill="#CD916E"/>
<path d="M15.5321 17.758C14.677 17.758 13.9837 17.0648 13.9837 16.2096C13.9837 15.9954 14.0273 15.7915 14.1059 15.606C13.5507 15.8413 13.1611 16.3912 13.1611 17.0322C13.1611 17.8873 13.8544 18.5806 14.7095 18.5806C15.3505 18.5806 15.9004 18.191 16.1357 17.6358C15.9502 17.7144 15.7462 17.758 15.5321 17.758Z" fill="#B67F5F"/>
<path d="M11.5984 10.8389C12.026 10.8389 12.3726 10.4923 12.3726 10.0647C12.3726 9.63714 12.026 9.29053 11.5984 9.29053C11.1708 9.29053 10.8242 9.63714 10.8242 10.0647C10.8242 10.4923 11.1708 10.8389 11.5984 10.8389Z" fill="#CD916E"/>
<path d="M12.0087 10.4276C11.5811 10.4276 11.2345 10.0809 11.2345 9.65339C11.2345 9.54628 11.2563 9.44433 11.2956 9.35156C11.018 9.46922 10.8232 9.74419 10.8232 10.0647C10.8232 10.4922 11.1698 10.8389 11.5974 10.8389C11.9179 10.8389 12.1929 10.6441 12.3105 10.3665C12.2178 10.4058 12.1158 10.4276 12.0087 10.4276Z" fill="#B67F5F"/>
</g>
<defs>
<clipPath id="clip0_368_618">
<rect width="24" height="24" fill="white"/>
</clipPath>
</defs>
</svg>
