<svg width="624" height="71" viewBox="0 0 624 71" fill="none" xmlns="http://www.w3.org/2000/svg">
<path d="M1 70L41.8663 29.2076C57.4814 13.6207 82.7686 13.6207 98.3837 29.2076L110.991 41.7924C126.606 57.3793 151.894 57.3793 167.509 41.7924L180.116 29.2076C195.731 13.6207 221.019 13.6207 236.634 29.2076L249.241 41.7924C264.856 57.3793 290.144 57.3793 305.759 41.7924L318.366 29.2076C333.981 13.6207 359.269 13.6207 374.884 29.2076L387.491 41.7924C403.106 57.3793 428.394 57.3793 444.009 41.7924L456.616 29.2076C472.231 13.6207 497.519 13.6207 513.134 29.2076L525.716 41.7669C541.341 57.3637 566.648 57.3523 582.259 41.7413L623 1" stroke="#2C2C2C"/>
</svg>
