<svg width="20" height="20" viewBox="0 0 20 20" fill="none" xmlns="http://www.w3.org/2000/svg">
<g clip-path="url(#clip0_101_468)">
<path d="M11.5084 7.24609C11.2497 7.24609 11.04 7.45577 11.04 7.71448V16.5669C11.04 16.8255 11.2497 17.0353 11.5084 17.0353C11.7671 17.0353 11.9768 16.8255 11.9768 16.5669V7.71448C11.9768 7.45577 11.7671 7.24609 11.5084 7.24609Z" fill="currentColor"/>
<path d="M8.48206 7.24609C8.22335 7.24609 8.01367 7.45577 8.01367 7.71448V16.5669C8.01367 16.8255 8.22335 17.0353 8.48206 17.0353C8.74076 17.0353 8.95044 16.8255 8.95044 16.5669V7.71448C8.95044 7.45577 8.74076 7.24609 8.48206 7.24609Z" fill="currentColor"/>
<path d="M3.20431 5.95419V17.4942C3.20431 18.1762 3.45442 18.8168 3.89133 19.2764C4.32623 19.7373 4.93147 19.9989 5.56488 20H14.4268C15.0604 19.9989 15.6657 19.7373 16.1004 19.2764C16.5373 18.8168 16.7874 18.1762 16.7874 17.4942V5.95419C17.6559 5.72366 18.2187 4.8846 18.1025 3.99339C17.9862 3.10236 17.2271 2.43583 16.3284 2.43565H13.9303V1.85017C13.933 1.35782 13.7383 0.885048 13.3898 0.537238C13.0413 0.18961 12.5677 -0.00396362 12.0754 6.15416e-05H7.91631C7.42396 -0.00396362 6.95045 0.18961 6.60191 0.537238C6.25337 0.885048 6.0587 1.35782 6.06144 1.85017V2.43565H3.66336C2.76465 2.43583 2.00554 3.10236 1.88918 3.99339C1.773 4.8846 2.33579 5.72366 3.20431 5.95419ZM14.4268 19.0632H5.56488C4.76406 19.0632 4.14107 18.3753 4.14107 17.4942V5.99536H15.8506V17.4942C15.8506 18.3753 15.2277 19.0632 14.4268 19.0632ZM6.99821 1.85017C6.99509 1.60628 7.09097 1.37154 7.26405 1.19938C7.43695 1.02721 7.67224 0.932619 7.91631 0.936827H12.0754C12.3195 0.932619 12.5548 1.02721 12.7277 1.19938C12.9007 1.37136 12.9966 1.60628 12.9935 1.85017V2.43565H6.99821V1.85017ZM3.66336 3.37242H16.3284C16.794 3.37242 17.1714 3.74987 17.1714 4.2155C17.1714 4.68114 16.794 5.05859 16.3284 5.05859H3.66336C3.19772 5.05859 2.82027 4.68114 2.82027 4.2155C2.82027 3.74987 3.19772 3.37242 3.66336 3.37242Z" fill="currentColor"/>
</g>
<defs>
<clipPath id="clip0_101_468">
<rect width="20" height="20" fill="white"/>
</clipPath>
</defs>
</svg>
