<svg width="17" height="18" viewBox="0 0 17 18" fill="none" xmlns="http://www.w3.org/2000/svg">
<path d="M10.6576 5.30974C10.8953 5.54701 11.4063 5.46821 11.4685 5.13816C11.499 4.97638 11.6403 4.85922 11.8049 4.85922H12.2297C12.7656 4.85922 13.1693 5.3469 13.0692 5.87344L12.2636 10.1103C12.1611 10.6328 12.1099 11.0247 12.1099 11.2859C12.1099 11.6517 12.1953 11.9216 12.366 12.0958C12.5366 12.2525 12.7244 12.3309 12.9292 12.3309C13.4754 12.3309 13.9875 11.9826 14.4654 11.2859C14.7555 10.8679 14.9774 10.3106 15.131 9.61393C15.2846 8.91727 15.3614 8.29898 15.3614 7.75907C15.3614 6.13933 14.8067 4.70247 13.6973 3.44848C12.6049 2.19448 11.0346 1.56749 8.98645 1.56749C6.92118 1.56749 5.18022 2.29028 3.76355 3.73585C2.34689 5.18142 1.63855 6.97533 1.63855 9.11756C1.63855 10.6502 2.03112 12.0348 2.81627 13.2714C3.60141 14.508 4.67671 15.3875 6.04217 15.91C6.89558 16.2583 7.86847 16.4325 8.96084 16.4325C10.4919 16.4325 11.9265 16.1951 13.2646 15.7202C13.7406 15.5513 14.277 15.8038 14.4081 16.2916C14.5143 16.6869 14.3137 17.1029 13.9277 17.2388C12.4869 17.7463 10.8739 18 9.08886 18C6.56275 18 4.49749 17.2946 2.89307 15.8839C0.964357 14.1597 0 11.8955 0 9.09144C0 6.46154 0.84488 4.29318 2.53464 2.58636C4.2244 0.862119 6.3494 0 8.90964 0C11.2139 0 13.134 0.70537 14.6702 2.11611C16.2234 3.50943 17 5.38171 17 7.73295C17 9.5791 16.5904 11.0595 15.7711 12.1742C14.9518 13.2714 13.9704 13.82 12.8268 13.82C12.2977 13.82 11.8624 13.672 11.5211 13.3759C11.1544 13.0412 10.3753 12.9089 9.98794 13.2195C9.35837 13.7244 8.59783 13.9768 7.70633 13.9768C6.81878 13.9768 5.99096 13.6459 5.22289 12.984C4.47189 12.3048 4.09639 11.2424 4.09639 9.79681C4.09639 8.17707 4.55723 6.89695 5.47892 5.95646C6.4006 5.01597 7.43323 4.54572 8.57681 4.54572C9.45369 4.54572 10.1473 4.80039 10.6576 5.30974ZM7.96235 12.148C8.69629 12.148 9.33635 11.8171 9.88253 11.1553C10.4458 10.4935 10.7274 9.64877 10.7274 8.62119C10.7274 7.87228 10.5397 7.31495 10.1642 6.9492C9.78865 6.56604 9.32781 6.37446 8.78163 6.37446C8.03062 6.37446 7.39056 6.67924 6.86145 7.28882C6.33233 7.8984 6.06777 8.72569 6.06777 9.77068C6.06777 10.537 6.24699 11.1292 6.60542 11.5472C6.98092 11.9478 7.43323 12.148 7.96235 12.148Z" fill="url(#paint0_linear_101_4091)"/>
<defs>
<linearGradient id="paint0_linear_101_4091" x1="-4.40945e-08" y1="9.12677" x2="17" y2="9.12677" gradientUnits="userSpaceOnUse">
<stop stop-color="#21A5B5"/>
<stop offset="1" stop-color="#71B2B4"/>
</linearGradient>
</defs>
</svg>
