<svg width="16" height="16" viewBox="0 0 16 16" fill="none" xmlns="http://www.w3.org/2000/svg">
<path d="M8 2.54541C4.36364 2.54541 1.23636 4.79996 0 7.99996C1.23636 11.2 4.36364 13.4545 8 13.4545C11.6364 13.4545 14.7636 11.2 16 7.99996C14.7636 4.79996 11.6364 2.54541 8 2.54541ZM8 11.6363C5.96364 11.6363 4.36364 10.0363 4.36364 7.99996C4.36364 5.96359 5.96364 4.36359 8 4.36359C10.0364 4.36359 11.6364 5.96359 11.6364 7.99996C11.6364 10.0363 10.0364 11.6363 8 11.6363ZM8 5.81814C6.76364 5.81814 5.81818 6.76359 5.81818 7.99996C5.81818 9.23632 6.76364 10.1818 8 10.1818C9.23636 10.1818 10.1818 9.23632 10.1818 7.99996C10.1818 6.76359 9.23636 5.81814 8 5.81814Z" fill="#CFCFCF"/>
<path fill-rule="evenodd" clip-rule="evenodd" d="M15 1.92457L1.92457 15L1 14.0754L14.0754 1L15 1.92457Z" fill="#CFCFCF"/>
</svg>
