<svg width="16" height="17" viewBox="0 0 16 17" fill="none" xmlns="http://www.w3.org/2000/svg">
<path d="M9.2426 5.99091H6.7556C5.7256 5.99091 4.1766 5.11991 3.6046 4.54391C2.7996 3.73291 2.7996 2.41191 3.6056 1.60091C4.3886 0.812906 5.7546 0.812906 6.5386 1.60091C6.9716 2.03691 8.1216 3.80791 7.9636 4.98991H8.0346C7.8766 3.80791 9.0266 2.03691 9.4606 1.60091C10.2426 0.812906 11.6086 0.810906 12.3936 1.60091C13.2006 2.41191 13.2006 3.73191 12.3936 4.54291C11.8216 5.11891 10.2726 5.99091 9.2426 5.99091ZM9.2426 4.99091C9.9336 4.99091 11.2536 4.27291 11.6836 3.83891C12.1036 3.41691 12.1036 2.72891 11.6836 2.30691C11.2776 1.89791 10.5726 1.89991 10.1686 2.30691C9.4946 2.98491 8.8246 4.71691 9.0576 4.95791C9.0586 4.95791 9.1006 4.99091 9.2426 4.99091ZM5.0726 1.99091C4.7866 1.99091 4.5176 2.10291 4.3146 2.30691C3.8956 2.72891 3.8956 3.41691 4.3146 3.83891C4.7456 4.27291 6.0646 4.99091 6.7556 4.99091C6.8986 4.99091 6.9406 4.95891 6.9406 4.95891C7.1736 4.71591 6.5036 2.98391 5.8296 2.30691C5.6266 2.10291 5.3576 1.99091 5.0726 1.99091Z" fill="#F44336"/>
<path d="M1 7.99084V14.9908C1 15.5428 1.449 15.9908 2 15.9908H14C14.552 15.9908 15 15.5428 15 14.9908V7.99084H1Z" fill="#FFC107"/>
<path d="M15 4.99084H1C0.449 4.99084 0 5.43985 0 5.99085V8.49086C0 8.76686 0.224 8.99086 0.5 8.99086H15.5C15.776 8.99086 16 8.76686 16 8.49086V5.99085C16 5.43885 15.552 4.99084 15 4.99084Z" fill="#FFD54F"/>
<path d="M9 4.99084H7V15.9908H9V4.99084Z" fill="#F44336"/>
</svg>
