<svg width="32" height="26" viewBox="0 0 32 26" fill="none" xmlns="http://www.w3.org/2000/svg">
<path d="M22.5544 0.000586172C20.0279 -0.0129157 17.6261 1.09666 15.9987 3.0292C14.3814 1.08345 11.973 -0.0292795 9.44298 0.000586172C4.70021 0.000586172 0.855469 3.84533 0.855469 8.5881C0.855469 16.7157 15.0403 24.6514 15.6153 24.9581C15.8474 25.1132 16.15 25.1132 16.3821 24.9581C16.9572 24.6514 31.1419 16.8306 31.1419 8.5881C31.1419 3.84533 27.2971 0.000586172 22.5544 0.000586172ZM15.9987 23.4246C13.7751 22.1212 2.38896 15.1822 2.38896 8.5881C2.38896 4.69228 5.54716 1.53401 9.44305 1.53401C11.8288 1.50267 14.0614 2.70603 15.347 4.71598C15.608 5.07591 16.1115 5.15612 16.4714 4.89503C16.5401 4.84513 16.6006 4.78474 16.6504 4.71598C18.7825 1.45534 23.1542 0.540442 26.4148 2.6725C28.4109 3.97771 29.6123 6.2031 29.6084 8.58802C29.6084 15.2588 18.2222 22.1595 15.9987 23.4246Z" fill="#2C2C2C"/>
</svg>
