<svg width="50" height="50" viewBox="0 0 50 50" fill="none" xmlns="http://www.w3.org/2000/svg">
<path d="M0.976562 23.0469H49.0234V49.0234H0.976562V23.0469Z" fill="#FFDA8F"/>
<path d="M49.0234 23.0474L40.625 29.7583V18.7075L49.0234 23.0474Z" fill="#FF7B79"/>
<path d="M40.625 29.7578C38.9629 31.086 30.6296 37.7454 28.9717 39.0703C27.9268 40.0352 26.5312 40.625 25 40.625C23.4688 40.625 22.0732 40.0352 21.0283 39.0693C20.9725 39.0247 9.39121 29.7708 9.375 29.7578C9.375 29.0298 9.375 1.72324 9.375 0.976562H40.625V29.7578Z" fill="#F3EFF0"/>
<path d="M28.9062 7.42188C31.2188 7.42188 32.8125 9.38184 32.8125 11.7031C32.8125 14.9141 29.6338 17.04 25 21.0938C20.3662 17.04 17.1875 14.9141 17.1875 11.7031C17.1875 9.38184 18.7812 7.42188 21.0938 7.42188C24.0625 7.42188 25 10.8398 25 10.8398C25 10.8398 25.9375 7.42188 28.9062 7.42188Z" fill="#FF7B79"/>
<path d="M9.375 18.7075V29.7583L0.976562 23.0474L9.375 18.7075Z" fill="#FF7B79"/>
<path d="M22.3417 20.0956C22.9851 20.6438 23.6504 21.2106 24.357 21.8288C24.5411 21.9897 24.7705 22.0703 25 22.0703C25.2295 22.0703 25.4589 21.9897 25.643 21.8287C26.3495 21.2106 27.0148 20.6438 27.6583 20.0955C31.3501 16.9501 33.7891 14.8721 33.7891 11.7031C33.7891 8.81396 31.7381 6.44531 28.9062 6.44531C26.9664 6.44531 25.7359 7.55283 25 8.62246C24.2641 7.55283 23.0336 6.44531 21.0938 6.44531C18.2615 6.44531 16.2109 8.81436 16.2109 11.7031C16.2109 14.8721 18.6499 16.9501 22.3417 20.0956ZM21.0938 8.39844C23.2689 8.39844 24.0277 10.9905 24.0592 11.1018C24.1768 11.524 24.5614 11.8164 25 11.8164C25.4398 11.8164 25.8254 11.5224 25.9418 11.0981C25.9492 11.0712 26.7076 8.39844 28.9062 8.39844C30.5765 8.39844 31.8359 9.81914 31.8359 11.7031C31.8359 13.9702 29.7867 15.7163 26.3916 18.6089C25.9411 18.9928 25.4799 19.3857 25 19.8C24.5201 19.3856 24.0589 18.9927 23.6084 18.6089C20.2133 15.7162 18.1641 13.9702 18.1641 11.7031C18.1641 9.81914 19.4235 8.39844 21.0938 8.39844Z" fill="#444444"/>
<path d="M16.2109 25.9766H33.7891C34.3283 25.9766 34.7656 25.5394 34.7656 25C34.7656 24.4606 34.3283 24.0234 33.7891 24.0234H16.2109C15.6716 24.0234 15.2344 24.4606 15.2344 25C15.2344 25.5394 15.6716 25.9766 16.2109 25.9766Z" fill="#444444"/>
<path d="M29.8828 28.9062H20.1172C19.5778 28.9062 19.1406 29.3435 19.1406 29.8828C19.1406 30.4222 19.5778 30.8594 20.1172 30.8594H29.8828C30.4221 30.8594 30.8594 30.4222 30.8594 29.8828C30.8594 29.3435 30.4221 28.9062 29.8828 28.9062Z" fill="#444444"/>
<path d="M25 50C25.5393 50 25.9766 49.5628 25.9766 49.0234C25.9766 48.4841 25.5393 48.0469 25 48.0469C24.4607 48.0469 24.0234 48.4841 24.0234 49.0234C24.0234 49.5628 24.4607 50 25 50Z" fill="#444444"/>
<path d="M0.976562 50H20.6055C21.1448 50 21.582 49.5628 21.582 49.0234C21.582 48.4841 21.1448 48.0469 20.6055 48.0469H1.95312V25.0772C3.73096 26.4979 12.7759 33.7252 14.5333 35.1295L9.35986 39.9076C8.96367 40.2735 8.93906 40.8914 9.30498 41.2876C9.66982 41.6826 10.2876 41.7095 10.685 41.3425L16.0766 36.3628L20.3922 39.8112C21.655 40.9659 23.2898 41.6016 25 41.6016C26.7096 41.6016 28.3444 40.9664 29.6075 39.8123L33.9237 36.3632L39.3149 41.3425C39.7139 41.7107 40.3314 41.6813 40.6949 41.2876C41.0609 40.8914 41.0363 40.2735 40.6401 39.9076L35.4671 35.1298L48.0469 25.0772V48.0469H29.3945C28.8553 48.0469 28.418 48.4841 28.418 49.0234C28.418 49.5628 28.8553 50 29.3945 50H49.0234C49.5627 50 50 49.5628 50 49.0234V23.0469C50 22.6932 49.8022 22.3524 49.4761 22.1819C49.4746 22.1812 49.4732 22.1801 49.4718 22.1793L41.6016 18.1124V0.976562C41.6016 0.437207 41.1643 0 40.625 0H9.375C8.83564 0 8.39844 0.437207 8.39844 0.976562V18.1124L0.528223 22.1793C0.207227 22.3447 0 22.6853 0 23.0469V49.0234C0 49.5628 0.437207 50 0.976562 50ZM47.2381 23.2235L41.6016 27.7276V20.3108L47.2381 23.2235ZM39.6484 1.95312V29.2884C27.8143 38.7462 28.3583 38.3075 28.3092 38.3527C27.4043 39.1884 26.2291 39.6484 25 39.6484C23.7706 39.6484 22.5955 39.1881 21.6912 38.3522C21.6429 38.3075 22.1503 38.717 10.3516 29.288V1.95312H39.6484ZM8.39844 27.7273L2.76201 23.2235L8.39844 20.3109V27.7273Z" fill="#444444"/>
</svg>
