<svg width="471" height="669" viewBox="0 0 471 669" fill="none" xmlns="http://www.w3.org/2000/svg">
<path d="M412.786 170.273C440.394 186.344 444.154 218.166 444.154 218.166C434.058 187.102 387.442 173.291 387.442 173.291C419.344 198.535 416.013 224.744 416.013 224.744C405.162 187.311 365.259 175.93 365.259 175.93C393.615 198.364 397.375 230.193 397.375 230.193C372.35 181.542 333.95 182.895 333.95 182.895C358.013 196.163 363.809 218.062 363.809 218.062C341.411 191.689 311.042 190.856 306.268 189.615C339.235 198.854 363.268 240.718 363.268 240.718C411.424 329.531 367.206 389.339 365.148 392.097C382.92 325.502 362.195 286.024 362.195 286.024C363.912 327.769 347.155 349.132 347.155 349.132C352.758 293.219 334.268 254.76 332.433 251.17C340.197 275.736 329.22 306.086 329.22 306.086C329.539 254.418 310.316 227.666 310.316 227.666C324.52 251.786 313.536 282.144 313.536 282.144C309.843 250.88 297.297 235.812 292.863 231.382C308.274 307.305 337.029 498.712 271.68 638.628C306.46 644.366 344.068 654.015 384.089 669H10.7473C10.7473 669 44.1067 650.105 103.121 639.17C72.8402 565.165 87.4289 468.57 95.3783 429.397C93.0098 431.768 86.2891 439.833 84.3128 456.573C84.3128 456.573 78.4359 440.323 86.0374 427.412C86.0374 427.412 75.7416 441.736 75.9193 469.395C75.9193 469.395 70.0423 453.146 74.1947 439.996C73.2103 441.914 63.3142 462.504 66.3119 492.438C66.3119 492.438 57.341 481.006 58.2588 458.654C58.2588 458.654 47.1637 479.787 56.6748 515.437C55.5794 513.957 31.9088 481.942 57.6815 434.399C57.6815 434.399 70.5456 411.988 88.1913 407.045C85.6377 407.706 69.3762 408.152 57.3928 422.276C57.3928 422.276 60.4941 410.553 73.3805 403.447C73.3805 403.447 52.826 402.726 39.4289 428.765C39.4289 428.765 41.4421 411.728 56.623 399.716C56.623 399.716 35.2617 405.811 29.4514 425.844C29.4514 425.844 27.6676 411.81 44.7433 398.296C44.7433 398.296 19.7848 405.685 14.3815 422.32C14.3815 422.32 16.3948 405.283 31.1686 396.683C31.1686 396.683 12.309 396.163 0 427.516C0 427.516 0.22945 396.452 32.7747 383.05C64.5577 369.975 88.517 395.494 89.6124 396.698C89.3238 395.627 84.2388 378.717 64.9203 373.06C64.9203 373.06 70.6123 368.555 86.3409 380.761C85.5341 379.735 76.3116 364.051 54.6616 358.015C54.6616 358.015 64.7649 356.268 72.3812 358.981C64.1061 353.384 51.279 347.252 43.9957 346.382C43.9957 346.382 51.1828 343.78 64.3504 348.805C64.3504 348.805 48.9993 333.158 21.8572 329.925C21.8572 329.925 43.0187 325.539 59.1766 334.37C59.1766 334.37 57.8813 330.757 43.4184 322.127C43.4184 322.127 88.813 330.995 100.545 377.304C100.545 377.304 100.374 349.645 85.0234 333.998C85.9338 334.727 97.7913 342.428 104.638 356.647C103.52 354.336 101.381 341.127 83.2396 319.964C83.2396 319.964 96.7403 328.044 98.8127 331.813C97.4804 328.966 89.6716 313.193 78.0658 305.521C78.0658 305.521 132.372 325.777 110.863 392.208C112.062 389.309 132.143 342.851 185.509 342.509C185.509 342.509 167.922 347.252 156.539 356.194C158.426 355.072 176.227 345.066 198.269 350.939C198.269 350.939 163.57 353.711 143.8 375.506C144.681 375.022 159.085 366.994 175.502 368.949C175.502 368.949 150.543 376.338 134.963 391.762C134.963 391.762 145.947 386.157 155.717 390.781C155.717 390.781 140.048 392.372 124.467 407.788C124.467 407.788 187.145 401.433 190.883 457.16C190.883 457.16 185.709 442.724 179.328 438.51C179.81 439.394 187.493 456.758 182.489 469.982C182.489 469.982 181.912 445.727 166.161 433.485C167.056 434.63 175.132 444.917 173.518 458.55C173.518 458.55 168.744 440.71 154.377 432.184C155.177 433.284 161.661 442.449 160.151 455.227C160.151 455.227 155.828 434.191 141.343 427.174C142.327 427.88 146.606 431.567 150.751 447.162C149.944 446.136 142.416 430.653 120.766 424.624C120.766 424.624 164.207 464.318 126.791 534.072C127.317 532.548 134.282 511.712 130.485 487.971C130.485 487.971 128.864 508.509 115.918 524.208C116.488 523.167 126.68 497.887 124.504 480.352C124.504 480.352 118.694 500.392 114.497 506.799C114.497 506.799 119.73 462.512 114.556 448.069C114.556 448.069 112.943 461.694 108.346 471.513C108.346 471.513 111.544 444.434 103.084 429.56C83.4764 532.704 109.582 602.287 127.509 635.335C155.199 631.789 187.285 630.288 223.191 632.852C255.492 580.217 318.851 444.025 278.474 231.687C262.664 259.465 268.637 310.056 268.637 310.056C260.044 291.718 257.039 266.259 257.039 266.259C247.372 293.227 257.15 375.966 257.15 375.966C249.312 363.991 238.461 326.565 238.461 326.565C234.405 359.323 253.434 406.554 254.5 408.494C230.319 379.17 227.284 340.807 227.284 340.807C220.186 385.154 233.198 424.067 234.182 426.921C164.288 296.616 245.44 222.47 245.44 222.47C204.998 233.746 190.934 262.654 189.424 264.579C197.167 235.456 205.153 228.565 206.996 227.249C179.943 240.347 171.86 279.646 171.86 279.646C169.04 255.778 181.157 238.652 182.652 236.6C155.806 252.515 146.887 285.846 146.887 285.846C143.882 260.387 158.959 241.164 160.632 239.031C131.203 261.903 130.129 307.209 130.129 307.209C120.781 282.508 135.14 250.077 136.036 248.419C124.112 256.291 114.445 283.259 114.445 283.259C121.425 179.164 238.505 191.027 238.505 191.027C209.394 162.223 180.128 159.257 180.128 159.257C198.388 150.627 218.905 161.093 218.905 161.093C189.794 132.29 143.179 118.486 143.179 118.486C173.851 114.829 200.749 129.829 202.4 130.729C165.458 90.0167 100.641 84.8357 100.641 84.8357C141.824 73.8642 175.072 92.5514 178.596 94.6476C157.345 77.9599 124.489 69.0921 124.489 69.0921C224.175 69.7313 261.68 156.522 263.923 161.941C223.754 37.8352 325.194 0 325.194 0C303.507 14.3239 288.926 43.7967 286.431 49.1115C290.302 42.0648 315.527 26.9678 315.527 26.9678C281.635 66.5053 277.638 91.1688 275.551 95.495C288.348 68.9285 310.494 54.5452 312.196 53.1775C283.515 82.4125 283.197 134.081 283.197 134.081C305.106 47.5728 389.907 31.0115 389.907 31.0115C362.891 47.1417 360.478 53.8836 360.478 53.8836C390.662 37.3818 430.187 45.5807 430.187 45.5807C379.485 51.6239 350.811 80.8515 350.811 80.8515C375.407 71.4633 388.834 76.3246 388.834 76.3246C375.237 77.9451 351.27 89.3997 335.815 99.8583C350.034 94.7888 368.908 98.0594 368.908 98.0594C328.465 109.336 311.234 138.623 309.724 140.54C339.102 117.743 349.73 126.157 349.73 126.157C313.64 136.72 304.136 168.311 303.596 170.311C305.646 168.066 350.397 120.396 409.773 144.815C470.571 169.842 471 227.874 471 227.874C448.018 169.307 412.786 170.273 412.786 170.273Z" fill="white" fill-opacity="0.05"/>
</svg>
