<svg width="401" height="243" viewBox="0 0 401 243" fill="none" xmlns="http://www.w3.org/2000/svg">
<g clip-path="url(#clip0_101_12045)">
<path d="M19.7388 235.743C34.6448 234.203 53.6628 240.366 67.0268 245.502C86.0448 253.206 103.007 265.019 122.025 272.209C132.819 276.318 144.127 278.886 155.435 279.913C165.715 280.427 175.481 278.886 185.761 279.399C186.789 279.399 188.331 279.399 189.359 279.399C185.247 266.559 181.649 253.719 178.051 240.879C162.117 243.447 147.211 241.393 132.305 235.23C112.259 227.526 92.7268 219.308 71.6528 214.172C55.2048 210.063 22.8228 206.468 20.2528 184.897C20.2528 184.383 20.2528 184.383 20.7668 183.87C21.2808 181.815 22.3088 179.761 22.8228 177.707C24.3648 177.707 25.3928 177.193 26.4208 177.193C51.6068 177.707 73.1948 195.683 95.8108 203.9C110.717 209.55 126.137 214.172 142.071 217.254C152.351 219.308 163.145 218.281 173.425 219.822C173.425 219.308 172.911 218.795 172.911 218.281C171.883 215.199 171.369 211.604 170.341 208.523C138.987 208.009 118.941 190.547 93.7548 174.111C80.9048 165.894 66.5128 161.271 53.6628 153.567C43.8969 147.918 38.2428 140.727 39.2708 129.428C39.7848 124.806 45.4388 124.292 49.0368 125.319C69.5968 131.483 85.0168 145.863 103.007 156.649C113.801 163.326 126.137 167.435 137.445 172.571C145.669 176.166 156.463 179.247 165.201 183.87C165.201 183.87 165.201 183.356 165.715 183.356C164.173 174.111 163.145 164.867 162.631 156.135C161.603 156.135 161.089 156.135 160.061 156.135C158.519 154.595 156.463 153.054 153.893 152.54H153.379C153.379 152.54 153.379 152.027 152.865 152.027C131.791 143.809 113.287 134.564 94.7828 120.183C80.9048 109.398 60.3448 88.8538 63.4288 69.337C64.4568 64.201 70.6248 63.6874 74.2228 66.2554C81.9328 70.8778 86.5588 78.0682 92.2128 84.745C99.9228 93.9898 109.175 101.18 118.427 108.371C132.305 119.156 147.211 127.887 160.061 139.7C160.061 139.187 159.547 139.187 159.547 138.673C153.379 109.911 153.379 81.6634 152.865 52.9018C152.865 34.9258 151.323 12.841 167.771 1.02818C171.883 -1.53982 177.537 1.02818 179.079 5.13698C184.219 19.5178 182.163 35.4394 180.621 49.8202C179.079 67.7962 178.051 85.7722 175.481 103.748C174.453 111.966 173.425 119.67 173.425 127.374C174.967 123.779 177.023 119.67 178.565 116.075C183.705 105.289 186.789 93.9898 191.929 83.2042C200.667 64.201 212.489 47.2522 221.741 28.249C224.311 23.113 232.535 25.681 232.535 31.3306C232.021 53.4154 223.797 72.4186 211.461 90.3946C201.695 104.775 192.443 119.67 183.191 135.078C182.677 136.619 182.163 137.646 181.649 139.187C181.135 139.7 181.135 140.214 180.621 140.214C179.079 141.755 178.051 143.295 177.537 144.836C177.537 145.35 177.537 145.35 177.537 145.863H177.023C175.995 147.404 174.967 148.945 174.453 150.486C174.967 158.703 175.481 166.407 177.023 174.625C180.621 170.516 184.219 165.38 187.817 162.299C199.639 152.027 209.919 142.268 218.143 128.401C230.479 106.83 242.815 85.2586 265.945 73.4458C269.543 71.3914 278.795 74.9866 275.711 80.1226C265.431 98.6122 261.319 121.211 242.815 133.537C237.675 143.295 230.479 152.027 223.283 160.244C221.741 161.785 220.713 163.326 219.171 164.867C219.171 164.867 219.171 165.38 218.657 165.38C216.601 166.407 216.601 166.921 216.087 166.921C205.293 179.247 194.499 191.574 180.107 198.764C181.649 205.955 183.191 213.145 185.247 219.822C193.985 211.604 205.293 205.441 215.059 199.278C230.479 189.519 243.843 178.22 257.721 165.894C269.029 156.135 281.365 147.918 292.159 137.646C301.925 128.915 310.663 121.211 324.027 119.156C327.111 118.643 330.709 121.724 331.223 124.292C333.279 147.404 305.523 161.271 289.075 170.516C275.711 178.22 263.889 185.411 253.095 197.223C243.843 206.982 235.619 217.767 225.339 226.499C217.629 233.175 207.863 241.393 197.069 241.907C195.013 241.907 192.957 241.907 190.901 241.393C193.985 252.179 197.069 262.451 200.153 273.236C226.881 260.396 244.871 235.23 269.029 218.281C282.393 208.523 296.785 199.791 312.205 192.087C327.111 184.383 342.531 175.652 359.493 172.057C360.007 172.057 360.521 172.057 361.035 172.057C361.549 172.571 362.063 173.598 362.577 174.111C363.605 176.166 363.605 178.22 364.119 180.275C364.119 180.275 364.119 180.275 363.605 180.275C363.091 187.465 348.185 198.764 344.073 201.332C329.167 210.577 317.345 220.849 305.523 234.203C296.271 244.988 287.019 255.26 275.197 263.478C264.917 270.668 254.123 275.804 242.815 280.94C232.021 286.59 220.199 292.753 207.863 292.753C207.349 292.753 206.835 292.753 206.321 292.753C209.405 302.511 212.489 312.27 215.573 322.028C229.451 315.865 241.787 310.729 254.123 301.484C260.291 296.862 266.973 292.239 273.655 288.131C283.935 280.427 293.701 272.209 303.981 264.505C316.317 255.26 329.167 248.583 343.559 242.934C352.297 239.339 361.549 236.257 370.287 238.311C373.371 241.907 375.427 246.015 376.969 250.124C381.595 267.587 342.017 278.886 330.709 282.995C311.177 289.671 296.785 305.079 279.823 316.379C263.375 327.164 242.301 342.572 221.227 341.031C221.741 342.059 221.741 343.086 222.255 344.113C224.825 352.844 227.395 361.062 228.937 369.279C235.619 362.603 242.815 357.467 252.581 355.412C254.123 354.899 255.151 354.899 256.693 354.899C272.627 348.735 290.617 347.708 307.065 342.572C316.317 339.491 325.569 336.409 334.821 332.814C353.325 323.055 371.315 313.811 393.417 313.811C396.501 313.811 402.155 315.865 401.127 320.487C395.987 346.681 366.689 349.763 345.101 354.385C308.607 362.089 275.711 386.742 237.675 386.742C235.619 386.742 233.049 385.201 230.993 383.147C231.507 387.255 232.021 391.878 232.535 396.5C234.077 412.422 237.675 429.371 234.591 445.292C233.563 450.428 224.825 448.374 224.311 443.751C223.283 431.939 222.769 419.612 223.283 407.799C222.769 404.718 222.255 401.636 221.741 398.041C212.489 400.609 203.751 400.609 194.499 402.15C184.219 403.691 174.453 407.286 164.173 409.854C145.155 414.99 125.623 419.612 106.091 422.694C87.5868 425.775 47.4948 431.425 42.8688 405.231C42.3548 402.663 43.8968 400.095 46.4668 399.582C60.8588 395.473 75.2508 391.878 90.1568 391.364C98.8948 391.364 107.633 391.878 116.885 390.337C126.137 388.796 134.875 385.201 143.613 383.147C165.715 378.011 195.013 366.711 218.657 373.902C216.601 364.657 214.031 355.412 210.947 346.681C193.471 350.276 176.509 351.817 158.519 350.79C139.501 349.249 121.511 345.14 103.007 341.545C93.7548 340.004 84.5028 338.463 74.7368 338.977C67.0268 339.491 59.3168 340.518 51.6068 339.491C43.8968 338.463 27.9628 333.327 27.9628 323.569C27.9628 315.351 38.2428 313.811 44.4108 312.783C60.3448 310.215 77.3068 310.729 93.2408 311.756C111.231 312.783 126.651 318.433 143.613 323.569C163.659 329.732 184.733 331.273 205.807 330.759C205.293 329.219 204.779 328.191 204.779 326.651C200.667 313.811 196.555 300.971 192.443 287.617C186.275 288.644 179.593 289.158 172.911 289.158C158.005 291.726 143.613 294.807 127.679 293.267C107.633 291.212 88.1008 285.049 70.1108 276.831C61.3728 272.723 53.6628 267.073 44.9248 262.964C37.7288 259.883 31.0468 260.396 23.8508 259.883C18.1968 259.369 8.43082 259.369 3.29083 254.747C1.74884 253.719 0.720825 252.692 0.720825 251.151C0.720825 251.151 0.720825 250.638 0.206848 250.638C-1.84915 243.961 12.0288 236.771 19.7388 235.743Z" fill="white" fill-opacity="0.05"/>
</g>
<defs>
<clipPath id="clip0_101_12045">
<rect width="401" height="243" fill="white"/>
</clipPath>
</defs>
</svg>
