<svg width="28" height="25" viewBox="0 0 28 25" fill="none" xmlns="http://www.w3.org/2000/svg">
<path d="M24.8669 1.30851L24.6737 1.76797L24.8669 1.30851C23.6011 0.776157 22.1428 1.3645 21.6007 2.62625L14.2813 19.6646C13.7173 20.9775 14.3664 22.4951 15.7053 22.994L17.7279 23.7477C19.0507 24.2407 20.519 23.5413 20.9699 22.2036L26.88 4.66942C27.2984 3.42806 26.6877 2.07422 25.4801 1.5664L24.8669 1.30851ZM13.9496 4.68165C14.3796 3.43666 13.7698 2.0716 12.5557 1.56099L11.9553 1.30851C10.6895 0.776157 9.2312 1.3645 8.68917 2.62625L1.36143 19.6839C0.801353 20.9877 1.43742 22.4956 2.76202 23.0044L4.63708 23.7247C5.95724 24.2318 7.43485 23.5438 7.89653 22.2071L13.9496 4.68165Z" stroke="url(#paint0_linear_101_12010)"/>
<defs>
<linearGradient id="paint0_linear_101_12010" x1="1" y1="12.662" x2="27" y2="12.662" gradientUnits="userSpaceOnUse">
<stop stop-color="#21A5B5"/>
<stop offset="1" stop-color="#71B2B4"/>
</linearGradient>
</defs>
</svg>
