<svg width="12" height="18" viewBox="0 0 12 18" fill="none" xmlns="http://www.w3.org/2000/svg">
<path d="M5.87973 -7.46222e-08C7.51893 -7.46222e-08 8.8196 0.323838 9.78174 0.971514C10.5122 1.43928 11.0646 2.05997 11.4388 2.83358C11.8129 3.6072 12 4.38981 12 5.18141C12 6.69265 11.5278 7.92504 10.5835 8.87856C9.49666 9.97601 7.93764 10.5247 5.90646 10.5247H4.67706V12.5217H7.95525C8.4769 12.5217 8.89978 12.64 8.89978 13.4663C8.89978 14.39 8.4769 14.4108 7.95525 14.4108H4.67706V16.637C4.67706 17.3898 4.37 18 3.31403 18C2.26 18 1.951 17.3898 1.951 16.637V14.4108H0.944528C0.422879 14.4108 0 14.39 0 13.4663C0 12.64 0.42288 12.5217 0.944529 12.5217H1.951V10.5247H1.18741C0.531619 10.5247 0 10.39 0 9.33733C0 8.38 0.53162 8.14993 1.18741 8.14993H1.951V2C1.951 -0.104571 1.84643 -7.46222e-08 3.951 -7.46222e-08H5.87973ZM4.67706 2.53673V8.14993H5.90646C7.15367 8.14993 8.08018 7.84408 8.68597 7.23238C9.14922 6.76462 9.38085 6.12594 9.38085 5.31634C9.38085 4.52474 9.1314 3.87706 8.63252 3.37331C8.06236 2.81559 7.14477 2.53673 5.87973 2.53673H4.67706Z" fill="url(#paint0_linear_101_4103)"/>
<defs>
<linearGradient id="paint0_linear_101_4103" x1="-3.11255e-08" y1="9.12634" x2="12" y2="9.12634" gradientUnits="userSpaceOnUse">
<stop stop-color="#21A5B5"/>
<stop offset="1" stop-color="#71B2B4"/>
</linearGradient>
</defs>
</svg>
