<svg width="9" height="13" viewBox="0 0 9 13" fill="none" xmlns="http://www.w3.org/2000/svg">
<path d="M4.82753 0.993999C5.93153 0.993999 6.80753 1.21 7.45553 1.642C7.94753 1.954 8.31953 2.368 8.57153 2.884C8.82353 3.4 8.94953 3.922 8.94953 4.45C8.94953 5.458 8.63153 6.28 7.99553 6.916C7.26353 7.648 6.21353 8.014 4.84553 8.014H4.01753V9.346H6.86153V10.606H4.01753V13H2.18153V10.606H0.867531V9.346H2.18153V8.014H0.867531V6.43H2.18153V0.993999H4.82753ZM4.01753 2.686V6.43H4.84553C5.68553 6.43 6.30953 6.226 6.71753 5.818C7.02953 5.506 7.18553 5.08 7.18553 4.54C7.18553 4.012 7.01753 3.58 6.68153 3.244C6.29753 2.872 5.67953 2.686 4.82753 2.686H4.01753Z" fill="#2C2C2C"/>
</svg>
