<svg width="34" height="34" viewBox="0 0 34 34" fill="none" xmlns="http://www.w3.org/2000/svg">
<path d="M30.6366 30.7717L23.4307 23.5657C25.2861 21.5056 26.4264 18.7895 26.4264 15.8053C26.4264 9.39747 21.2132 4.18421 14.8053 4.18421C8.39748 4.18421 3.18421 9.39747 3.18421 15.8053C3.18421 22.2132 8.39748 27.4264 14.8053 27.4264C17.7895 27.4264 20.5056 26.2861 22.5658 24.4307L29.7717 31.6366C29.8912 31.756 30.0477 31.8158 30.2042 31.8158C30.3607 31.8158 30.5172 31.756 30.6367 31.6366C30.8755 31.3977 30.8755 31.0106 30.6366 30.7717ZM14.8053 26.2031C9.07244 26.2031 4.40752 21.5388 4.40752 15.8053C4.40752 10.0719 9.07244 5.40746 14.8053 5.40746C20.5382 5.40746 25.2031 10.0718 25.2031 15.8053C25.2031 21.5388 20.5382 26.2031 14.8053 26.2031Z" fill="#2C2C2C"/>
<path fill-rule="evenodd" clip-rule="evenodd" d="M30.6367 31.6366C30.5172 31.756 30.3607 31.8158 30.2042 31.8158C30.0477 31.8158 29.8912 31.756 29.7717 31.6366L22.5658 24.4307C20.5056 26.2861 17.7895 27.4264 14.8053 27.4264C8.39748 27.4264 3.18421 22.2132 3.18421 15.8053C3.18421 9.39747 8.39748 4.18421 14.8053 4.18421C21.2132 4.18421 26.4264 9.39747 26.4264 15.8053C26.4264 18.7895 25.2861 21.5056 23.4307 23.5657L30.6366 30.7717C30.8755 31.0106 30.8755 31.3977 30.6367 31.6366ZM30.7668 30.6415L23.6836 23.5582C25.4993 21.4826 26.6107 18.7747 26.6107 15.8053C26.6106 9.29574 21.3149 4 14.8053 4C8.29574 4 3 9.29574 3 15.8053C3 22.3149 8.29574 27.6106 14.8053 27.6106C17.7747 27.6106 20.4826 26.4993 22.5583 24.6836L29.6415 31.7669C29.7968 31.9222 30.0008 32 30.2042 32C30.4076 32 30.6115 31.9222 30.7669 31.7669C31.0777 31.456 31.0777 30.9523 30.7668 30.6415C30.7668 30.6414 30.7669 30.6415 30.7668 30.6415ZM4.59173 15.8053C4.59173 21.437 9.17417 26.0189 14.8053 26.0189C20.4365 26.0189 25.0189 21.4371 25.0189 15.8053C25.0189 10.1735 20.4365 5.59167 14.8053 5.59167C9.17417 5.59167 4.59173 10.1736 4.59173 15.8053ZM4.40752 15.8053C4.40752 21.5388 9.07244 26.2031 14.8053 26.2031C20.5382 26.2031 25.2031 21.5388 25.2031 15.8053C25.2031 10.0718 20.5382 5.40746 14.8053 5.40746C9.07244 5.40746 4.40752 10.0719 4.40752 15.8053Z" fill="#2C2C2C"/>
</svg>
