<svg width="28" height="28" viewBox="0 0 28 28" fill="none" xmlns="http://www.w3.org/2000/svg">
<path d="M13.9997 27.1833C21.2807 27.1833 27.1831 21.2809 27.1831 14C27.1831 6.71903 21.2807 0.81665 13.9997 0.81665C6.71879 0.81665 0.816406 6.71903 0.816406 14C0.816406 21.2809 6.71879 27.1833 13.9997 27.1833Z" stroke="#2C2C2C" stroke-width="1.5" stroke-miterlimit="10" stroke-linecap="round" stroke-linejoin="round"/>
<path d="M13.9993 17.3833C9.91602 17.3833 6.41602 19.7166 4.66602 23.2166C6.99935 25.6666 10.3827 27.0666 13.9993 27.0666C17.616 27.0666 20.9993 25.55 23.3327 23.2166C21.5827 19.8333 18.0827 17.3833 13.9993 17.3833Z" stroke="#2C2C2C" stroke-width="1.5" stroke-miterlimit="10" stroke-linecap="round" stroke-linejoin="round"/>
<path d="M13.9998 14.35C16.3194 14.35 18.1998 12.4695 18.1998 10.15C18.1998 7.83036 16.3194 5.94995 13.9998 5.94995C11.6802 5.94995 9.7998 7.83036 9.7998 10.15C9.7998 12.4695 11.6802 14.35 13.9998 14.35Z" stroke="#2C2C2C" stroke-width="1.5" stroke-miterlimit="10" stroke-linecap="round" stroke-linejoin="round"/>
</svg>
