<svg width="224" height="34" viewBox="0 0 224 34" fill="none" xmlns="http://www.w3.org/2000/svg">
<g clip-path="url(#clip0_101_12060)">
<path opacity="0.4" fill-rule="evenodd" clip-rule="evenodd" d="M57.9961 25.2462C46.3077 33.4654 32.0359 33.4654 20.3475 25.2462L1.01547 11.6521L0 13.9089L19.332 27.5031C31.651 36.1656 46.6927 36.1656 59.0116 27.5031C70.7 19.2839 84.9718 19.2839 96.6602 27.5031C108.979 36.1656 124.021 36.1656 136.34 27.5031C148.028 19.2839 162.3 19.2839 173.988 27.5031C186.307 36.1656 201.349 36.1656 213.668 27.5031L233 13.9089L231.985 11.6521L212.652 25.2462C200.964 33.4654 186.692 33.4654 175.004 25.2462C162.685 16.5837 147.643 16.5837 135.324 25.2462C123.636 33.4654 109.364 33.4654 97.6757 25.2462C85.3568 16.5837 70.3151 16.5837 57.9961 25.2462Z" fill="white" fill-opacity="0.8"/>
<path opacity="0.4" fill-rule="evenodd" clip-rule="evenodd" d="M57.9961 21.3622C46.3077 29.5814 32.0359 29.5814 20.3475 21.3622L1.01547 7.76808L0 10.0249L19.332 23.619C31.651 32.2816 46.6927 32.2816 59.0116 23.619C70.7 15.3998 84.9718 15.3998 96.6602 23.619C108.979 32.2816 124.021 32.2816 136.34 23.619C148.028 15.3998 162.3 15.3998 173.988 23.619C186.307 32.2816 201.349 32.2816 213.668 23.619L233 10.0249L231.985 7.76808L212.652 21.3622C200.964 29.5814 186.692 29.5814 175.004 21.3622C162.685 12.6996 147.643 12.6996 135.324 21.3622C123.636 29.5814 109.364 29.5814 97.6757 21.3622C85.3568 12.6996 70.3151 12.6996 57.9961 21.3622Z" fill="white" fill-opacity="0.6"/>
<path opacity="0.4" fill-rule="evenodd" clip-rule="evenodd" d="M57.9961 17.4782C46.3077 25.6974 32.0359 25.6974 20.3475 17.4782L1.01547 3.88405L0 6.14087L19.332 19.735C31.651 28.3976 46.6927 28.3976 59.0116 19.735C70.7 11.5158 84.9718 11.5158 96.6602 19.735C108.979 28.3976 124.021 28.3976 136.34 19.735C148.028 11.5158 162.3 11.5158 173.988 19.735C186.307 28.3976 201.349 28.3976 213.668 19.735L233 6.14087L231.985 3.88405L212.652 17.4782C200.964 25.6974 186.692 25.6974 175.004 17.4782C162.685 8.81561 147.643 8.81561 135.324 17.4782C123.636 25.6974 109.364 25.6974 97.6757 17.4782C85.3568 8.81561 70.3151 8.81561 57.9961 17.4782Z" fill="white" fill-opacity="0.4"/>
<path opacity="0.4" fill-rule="evenodd" clip-rule="evenodd" d="M57.9961 13.5941C46.3077 21.8133 32.0359 21.8133 20.3475 13.5941L1.01547 1.33514e-05L0 2.25684L19.332 15.851C31.651 24.5135 46.6927 24.5135 59.0116 15.851C70.7 7.63177 84.9718 7.63178 96.6602 15.851C108.979 24.5135 124.021 24.5135 136.34 15.851C148.028 7.63177 162.3 7.63178 173.988 15.851C186.307 24.5135 201.349 24.5135 213.668 15.851L233 2.25684L231.985 1.33514e-05L212.652 13.5941C200.964 21.8133 186.692 21.8133 175.004 13.5941C162.685 4.93157 147.643 4.93157 135.324 13.5941C123.636 21.8133 109.364 21.8133 97.6757 13.5941C85.3568 4.93157 70.3151 4.93157 57.9961 13.5941Z" fill="white" fill-opacity="0.25"/>
</g>
<defs>
<clipPath id="clip0_101_12060">
<rect width="224" height="34" fill="white" transform="matrix(1 0 0 -1 0 34)"/>
</clipPath>
</defs>
</svg>
